<?xml version="1.0" encoding="UTF-8" standalone="no"?>
<!-- Created with Inkscape (http://www.inkscape.org/) -->

<svg
   width="204.55817mm"
   height="81.632622mm"
   viewBox="0 0 204.55817 81.632622"
   version="1.1"
   id="svg5"
   inkscape:version="1.2 (dc2aedaf03, 2022-05-15)"
   sodipodi:docname="404.svg"
   xmlns:inkscape="http://www.inkscape.org/namespaces/inkscape"
   xmlns:sodipodi="http://sodipodi.sourceforge.net/DTD/sodipodi-0.dtd"
   xmlns="http://www.w3.org/2000/svg"
   xmlns:svg="http://www.w3.org/2000/svg">
  <sodipodi:namedview
     id="namedview7"
     pagecolor="#ffffff"
     bordercolor="#000000"
     borderopacity="0.25"
     inkscape:showpageshadow="2"
     inkscape:pageopacity="0.0"
     inkscape:pagecheckerboard="0"
     inkscape:deskcolor="#d1d1d1"
     inkscape:document-units="mm"
     showgrid="false"
     inkscape:zoom="0.5759723"
     inkscape:cx="478.32161"
     inkscape:cy="234.38627"
     inkscape:window-width="1280"
     inkscape:window-height="727"
     inkscape:window-x="0"
     inkscape:window-y="0"
     inkscape:window-maximized="1"
     inkscape:current-layer="text1079"
     showguides="false" />
  <defs
     id="defs2" />
  <g
     inkscape:label="Layer 1"
     inkscape:groupmode="layer"
     id="layer1"
     transform="translate(-82.163868,-135.19252)">
    <g
       aria-label="404"
       id="text1079"
       style="font-size:123.472px;opacity:1;stroke-width:0;stop-color:#000000;stop-opacity:1">
      <g
         id="g1233"
         transform="matrix(1,0,0.35265396,1,-62.07021,0)"
         style="fill:#78350f;fill-opacity:1">
        <path
           d="m 150.65599,147.43243 q -0.30145,3.25561 -3.07474,6.75237 -8.44047,10.55059 -18.81019,27.06979 3.97908,0 6.45093,-0.36173 2.04983,-0.0603 5.06428,-0.24116 3.13503,0 3.3159,1.80868 0,1.68809 -5.06428,10.00798 l -17.54412,1.98954 q -1.02492,3.49676 -2.59243,10.61087 0,2.41157 2.11012,5.5466 -12.05782,5.96861 -13.20331,6.20977 -1.6278,0 -1.74838,-4.9437 0,-1.6881 1.14549,-7.41556 0.66318,-4.64225 1.80867,-9.28451 -2.29098,0 -11.093185,0.90433 -3.737922,0.36174 -7.897867,0.36174 -5.003992,0 -6.028906,-1.86896 -3.557055,-6.33035 -3.617344,-10.36972 -0.120578,-7.53613 14.228219,-19.89539 11.454923,-9.88741 29.481353,-19.11164 17.36325,-8.92278 23.45244,-9.16393 3.49677,-0.12058 3.61735,2.23069 0.0603,0.78376 -3.73792,3.97908 3.97907,2.2307 3.73792,5.18486 z m -4.70255,-2.59243 -1.38665,-1.74838 q -9.70654,4.09965 -17.24267,8.38018 -29.843086,16.88093 -35.449969,29.05933 0,2.23069 5.78775,2.713 5.667169,0.48232 17.664699,-1.14549 z"
           style="font-family:Navilu;-inkscape-font-specification:Navilu;fill:#78350f;fill-opacity:1"
           id="path1223" />
        <path
           d="m 218.54147,157.92273 q 0.12058,18.62932 -14.34879,36.53517 -15.49429,19.2925 -36.17344,20.73944 -7.53613,0.5426 -12.47984,-5.90833 -4.34081,-5.72746 -4.4011,-13.86649 -0.30144,-18.44845 17.78528,-38.76586 7.717,-8.68163 19.59394,-15.31343 10.91232,-6.0289 17.6647,-6.14948 3.07474,-0.0603 6.5715,2.83359 3.25561,2.77329 3.43648,4.58196 0,0.36174 -1.86896,1.08521 -2.11012,0.66318 -3.07474,1.74838 7.23468,2.41156 7.29497,12.47984 z m -6.69208,0 q 0.0603,-2.47185 -1.56752,-5.78775 -1.32636,-2.59243 -4.34081,-3.01446 -1.86896,0 -4.70255,2.35128 -2.83358,2.35127 -3.07474,2.35127 v -3.07474 q -17.30296,9.64625 -26.76834,22.84955 -8.2596,11.39464 -8.68163,22.24667 -0.12058,3.3159 0.84405,6.51122 1.32636,4.22023 4.22023,4.34081 2.7733,0.0603 8.07874,-2.83359 4.58197,-2.47185 7.35526,-4.9437 l 12.35926,-11.15348 q 4.9437,-4.4011 10.55059,-14.10764 5.60688,-9.76683 5.72746,-15.73544 z"
           style="font-family:Navilu;-inkscape-font-specification:Navilu;fill:#78350f;fill-opacity:1"
           id="path1225" />
        <path
           d="m 291.37066,147.43243 q -0.30144,3.25561 -3.07474,6.75237 -8.44047,10.55059 -18.81019,27.06979 3.97908,0 6.45093,-0.36173 2.04983,-0.0603 5.06428,-0.24116 3.13504,0 3.3159,1.80868 0,1.68809 -5.06428,10.00798 l -17.54412,1.98954 q -1.02491,3.49676 -2.59243,10.61087 0,2.41157 2.11012,5.5466 -12.05781,5.96861 -13.2033,6.20977 -1.62781,0 -1.74839,-4.9437 0,-1.6881 1.1455,-7.41556 0.66318,-4.64225 1.80867,-9.28451 -2.29099,0 -11.09319,0.90433 -3.73792,0.36174 -7.89787,0.36174 -5.00399,0 -6.0289,-1.86896 -3.55706,-6.33035 -3.61735,-10.36972 -0.12057,-7.53613 14.22822,-19.89539 11.45492,-9.88741 29.48135,-19.11164 17.36325,-8.92278 23.45245,-9.16393 3.49677,-0.12058 3.61734,2.23069 0.0603,0.78376 -3.73792,3.97908 3.97908,2.2307 3.73792,5.18486 z m -4.70254,-2.59243 -1.38665,-1.74838 q -9.70654,4.09965 -17.24267,8.38018 -29.84309,16.88093 -35.44997,29.05933 0,2.23069 5.78775,2.713 5.66717,0.48232 17.66469,-1.14549 z"
           style="font-family:Navilu;-inkscape-font-specification:Navilu;fill:#78350f;fill-opacity:1"
           id="path1227" />
      </g>
    </g>
  </g>
</svg>
