<?xml version="1.0" encoding="UTF-8" standalone="no"?>
<!-- Created with Inkscape (http://www.inkscape.org/) -->

<svg
   width="199.52725mm"
   height="80.046921mm"
   viewBox="0 0 199.52725 80.046921"
   version="1.1"
   id="svg5"
   inkscape:version="1.2 (dc2aedaf03, 2022-05-15)"
   sodipodi:docname="500.svg"
   xmlns:inkscape="http://www.inkscape.org/namespaces/inkscape"
   xmlns:sodipodi="http://sodipodi.sourceforge.net/DTD/sodipodi-0.dtd"
   xmlns="http://www.w3.org/2000/svg"
   xmlns:svg="http://www.w3.org/2000/svg">
  <sodipodi:namedview
     id="namedview7"
     pagecolor="#ffffff"
     bordercolor="#000000"
     borderopacity="0.25"
     inkscape:showpageshadow="2"
     inkscape:pageopacity="0.0"
     inkscape:pagecheckerboard="0"
     inkscape:deskcolor="#d1d1d1"
     inkscape:document-units="mm"
     showgrid="false"
     inkscape:zoom="0.5759723"
     inkscape:cx="462.69586"
     inkscape:cy="234.38627"
     inkscape:window-width="1280"
     inkscape:window-height="727"
     inkscape:window-x="0"
     inkscape:window-y="0"
     inkscape:window-maximized="1"
     inkscape:current-layer="text1079"
     showguides="false" />
  <defs
     id="defs2" />
  <g
     inkscape:label="Layer 1"
     inkscape:groupmode="layer"
     id="layer1"
     transform="translate(-86.417318,-135.19252)">
    <g
       aria-label="500"
       id="text1079"
       style="font-size:123.472px;stroke-width:0">
      <g
         id="g1163"
         transform="matrix(1,0,0.44427617,1,-77.844284,0)"
         style="fill:#78350f;fill-opacity:1">
        <path
           d="m 160.28158,135.43491 c -3.53696,6.51121 -5.98871,10.47019 -7.35526,11.87694 -2.09003,1.6479 -5.46622,2.47185 -10.12857,2.47185 l -29.46069,-0.12057 c -4.50159,3.53695 -8.8223,8.762 -12.96215,15.67515 8.96297,-2.13021 15.59477,-3.19532 19.89539,-3.19532 5.46621,0 9.94769,1.22588 13.44446,3.67763 3.81831,2.69291 5.80785,6.69209 5.96862,11.99753 0.0804,4.58197 -1.40674,9.46538 -4.46139,14.65024 -3.8585,6.55141 -9.78693,11.81666 -17.78528,15.79573 -8.72181,4.38101 -18.970953,6.57151 -30.747418,6.57151 -5.225052,0 -8.480661,-0.60289 -9.766828,-1.80867 -1.245974,-1.20578 -1.868961,-3.77811 -1.868961,-7.717 0,-3.53696 2.853682,-6.69209 8.561047,-9.46538 3.979078,-1.96945 7.234687,-3.01446 9.766828,-3.13503 0.44212,0 0.723469,0.0402 0.844047,0.12057 0,0.36174 -0.743565,0.94454 -2.230695,1.74839 l -8.862493,6.33035 1.808672,1.44694 c 13.987061,-1.44694 25.884101,-5.02409 35.691121,-10.73146 8.07874,-4.66235 12.19849,-9.14384 12.35926,-13.44446 0.0804,-1.76848 -1.16559,-3.25561 -3.73792,-4.46139 -2.09002,-1.00482 -4.13985,-1.50723 -6.14948,-1.50723 -3.97908,0 -9.22423,0.62299 -15.73545,1.86897 -6.51122,1.24597 -9.766828,1.96944 -9.766828,2.1704 0,0.0402 0.0201,0.0603 0.06029,0.0603 -1.889057,0 -3.456572,-1.6479 -4.702546,-4.9437 -0.723469,-1.96945 -1.125397,-4.40111 -1.205782,-7.29498 -0.04019,-1.60771 1.848864,-5.06428 5.667172,-10.36972 l 12.962144,-13.56504 c 2.2106,-2.33117 4.32072,-3.73792 6.33036,-4.22023 1.36655,-0.32154 3.95897,-0.48231 7.77728,-0.48231 z"
           style="-inkscape-font-specification:Navilu;fill:#78350f;fill-opacity:1"
           id="path1147"
           sodipodi:nodetypes="cccccsccccscscccccccccssscccccccc" />
        <path
           d="m 218.54147,157.92273 q 0.12058,18.62932 -14.34879,36.53517 -15.49429,19.2925 -36.17344,20.73944 -7.53613,0.5426 -12.47984,-5.90833 -4.34081,-5.72746 -4.4011,-13.86649 -0.30144,-18.44845 17.78528,-38.76586 7.717,-8.68163 19.59394,-15.31343 10.91232,-6.0289 17.6647,-6.14948 3.07474,-0.0603 6.5715,2.83359 3.25561,2.77329 3.43648,4.58196 0,0.36174 -1.86896,1.08521 -2.11012,0.66318 -3.07474,1.74838 7.23468,2.41156 7.29497,12.47984 z m -6.69208,0 q 0.0603,-2.47185 -1.56752,-5.78775 -1.32636,-2.59243 -4.34081,-3.01446 -1.86896,0 -4.70255,2.35128 -2.83358,2.35127 -3.07474,2.35127 v -3.07474 q -17.30296,9.64625 -26.76834,22.84955 -8.2596,11.39464 -8.68163,22.24667 -0.12058,3.3159 0.84405,6.51122 1.32636,4.22023 4.22023,4.34081 2.7733,0.0603 8.07874,-2.83359 4.58197,-2.47185 7.35526,-4.9437 l 12.35926,-11.15348 q 4.9437,-4.4011 10.55059,-14.10764 5.60688,-9.76683 5.72746,-15.73544 z"
           style="-inkscape-font-specification:Navilu;fill:#78350f;fill-opacity:1"
           id="path1149" />
        <path
           d="m 288.89881,157.92273 q 0.12058,18.62932 -14.3488,36.53517 -15.49428,19.2925 -36.17343,20.73944 -7.53614,0.5426 -12.47984,-5.90833 -4.34081,-5.72746 -4.4011,-13.86649 -0.30145,-18.44845 17.78527,-38.76586 7.717,-8.68163 19.59395,-15.31343 10.91232,-6.0289 17.66469,-6.14948 3.07475,-0.0603 6.57151,2.83359 3.25561,2.77329 3.43648,4.58196 0,0.36174 -1.86896,1.08521 -2.11012,0.66318 -3.07474,1.74838 7.23468,2.41156 7.29497,12.47984 z m -6.69208,0 q 0.0603,-2.47185 -1.56752,-5.78775 -1.32636,-2.59243 -4.34081,-3.01446 -1.86896,0 -4.70255,2.35128 -2.83359,2.35127 -3.07474,2.35127 v -3.07474 q -17.30296,9.64625 -26.76835,22.84955 -8.2596,11.39464 -8.68162,22.24667 -0.12058,3.3159 0.84405,6.51122 1.32636,4.22023 4.22023,4.34081 2.7733,0.0603 8.07874,-2.83359 4.58196,-2.47185 7.35526,-4.9437 l 12.35926,-11.15348 q 4.9437,-4.4011 10.55058,-14.10764 5.60689,-9.76683 5.72747,-15.73544 z"
           style="-inkscape-font-specification:Navilu;fill:#78350f;fill-opacity:1"
           id="path1151" />
      </g>
    </g>
  </g>
</svg>
