<?xml version="1.0" encoding="UTF-8" standalone="no"?>
<!-- Generator: Adobe Illustrator 16.0.0, SVG Export Plug-In . SVG Version: 6.00 Build 0)  -->

<svg
   version="1.1"
   id="Capa_1"
   x="0px"
   y="0px"
   width="100"
   height="100"
   viewBox="0 0 99.999998 99.999998"
   xml:space="preserve"
   sodipodi:docname="Behance.svg"
   inkscape:version="1.2 (dc2aedaf03, 2022-05-15)"
   xmlns:inkscape="http://www.inkscape.org/namespaces/inkscape"
   xmlns:sodipodi="http://sodipodi.sourceforge.net/DTD/sodipodi-0.dtd"
   xmlns="http://www.w3.org/2000/svg"
   xmlns:svg="http://www.w3.org/2000/svg"><defs
   id="defs418">
	
</defs><sodipodi:namedview
   id="namedview416"
   pagecolor="#ffffff"
   bordercolor="#000000"
   borderopacity="0.25"
   inkscape:showpageshadow="2"
   inkscape:pageopacity="0.0"
   inkscape:pagecheckerboard="0"
   inkscape:deskcolor="#d1d1d1"
   showgrid="false"
   inkscape:zoom="7.4939666"
   inkscape:cx="3.6028984"
   inkscape:cy="15.078797"
   inkscape:window-width="1440"
   inkscape:window-height="827"
   inkscape:window-x="0"
   inkscape:window-y="0"
   inkscape:window-maximized="1"
   inkscape:current-layer="Capa_1" />
<g
   id="g381"
   transform="scale(3.1754096)">
		<path
   d="M 12.033,16.98 C 11.651,16.804 11.114,16.716 10.425,16.708 H 6.97 V 21 h 3.4 c 0.699,0 1.24,-0.092 1.631,-0.283 0.703,-0.35 1.057,-1.019 1.057,-2.01 0,-0.837 -0.341,-1.414 -1.025,-1.727 z"
   id="path373" />
		<path
   d="m 12.077,13.645 c 0.435,-0.265 0.651,-0.736 0.651,-1.415 0,-0.749 -0.286,-1.246 -0.863,-1.485 -0.496,-0.165 -1.131,-0.251 -1.9,-0.251 H 6.97 v 3.551 h 3.405 c 0.699,-10e-4 1.266,-0.134 1.702,-0.4 z"
   id="path375" />
		<path
   d="m 22.516,13.941 c -0.775,0 -1.375,0.224 -1.801,0.661 -0.427,0.439 -0.693,1.033 -0.803,1.785 h 5.195 C 25.048,15.588 24.781,14.98 24.299,14.567 23.822,14.15 23.227,13.941 22.516,13.941 Z"
   id="path377" />
		<path
   d="M 0,0 V 31.492 H 31.492 V 0 Z m 19.249,8.366 h 6.481 v 1.61 h -6.481 z m -3.515,13.138 c -0.306,0.502 -0.685,0.924 -1.14,1.266 -0.513,0.394 -1.119,0.664 -1.816,0.808 -0.699,0.146 -1.457,0.218 -2.271,0.218 H 3.256 V 7.7 h 7.775 c 1.958,0.029 3.348,0.597 4.168,1.714 0.493,0.685 0.736,1.504 0.736,2.456 0,0.987 -0.247,1.773 -0.745,2.37 -0.275,0.337 -0.684,0.641 -1.225,0.916 0.819,0.302 1.44,0.771 1.855,1.423 0.418,0.646 0.627,1.435 0.627,2.356 0.001,0.956 -0.233,1.813 -0.713,2.569 z m 12.5,-3.127 h -8.396 c 0.047,1.159 0.446,1.969 1.206,2.434 0.457,0.291 1.012,0.432 1.661,0.432 0.687,0 1.241,-0.173 1.673,-0.527 0.234,-0.188 0.439,-0.455 0.618,-0.791 h 3.077 c -0.08,0.685 -0.45,1.377 -1.117,2.084 -1.03,1.121 -2.477,1.684 -4.335,1.684 -1.536,0 -2.888,-0.477 -4.062,-1.42 -1.17,-0.946 -1.76,-2.485 -1.76,-4.618 0,-1.999 0.528,-3.531 1.587,-4.597 1.063,-1.066 2.435,-1.598 4.125,-1.598 1.003,0 1.905,0.179 2.712,0.537 0.803,0.362 1.467,0.93 1.988,1.708 0.475,0.687 0.777,1.48 0.921,2.387 0.082,0.523 0.117,1.287 0.102,2.285 z"
   id="path379" />
	</g>
<g
   id="g385"
   transform="translate(-12.176332,-0.63188853)">
</g>
<g
   id="g387"
   transform="translate(-12.176332,-0.63188853)">
</g>
<g
   id="g389"
   transform="translate(-12.176332,-0.63188853)">
</g>
<g
   id="g391"
   transform="translate(-12.176332,-0.63188853)">
</g>
<g
   id="g393"
   transform="translate(-12.176332,-0.63188853)">
</g>
<g
   id="g395"
   transform="translate(-12.176332,-0.63188853)">
</g>
<g
   id="g397"
   transform="translate(-12.176332,-0.63188853)">
</g>
<g
   id="g399"
   transform="translate(-12.176332,-0.63188853)">
</g>
<g
   id="g401"
   transform="translate(-12.176332,-0.63188853)">
</g>
<g
   id="g403"
   transform="translate(-12.176332,-0.63188853)">
</g>
<g
   id="g405"
   transform="translate(-12.176332,-0.63188853)">
</g>
<g
   id="g407"
   transform="translate(-12.176332,-0.63188853)">
</g>
<g
   id="g409"
   transform="translate(-12.176332,-0.63188853)">
</g>
<g
   id="g411"
   transform="translate(-12.176332,-0.63188853)">
</g>
<g
   id="g413"
   transform="translate(-12.176332,-0.63188853)">
</g>
</svg>
