<?xml version="1.0" encoding="UTF-8" standalone="no"?>
<!-- Created with Inkscape (http://www.inkscape.org/) -->

<svg
   width="7.9374809mm"
   height="7.937572mm"
   viewBox="0 0 7.9374811 7.937572"
   version="1.1"
   id="svg5"
   inkscape:version="1.4.2 (2aeb623e1d, 2025-05-12)"
   sodipodi:docname="Logo.svg"
   inkscape:export-filename="Logo.svg"
   inkscape:export-xdpi="96"
   inkscape:export-ydpi="96"
   xmlns:inkscape="http://www.inkscape.org/namespaces/inkscape"
   xmlns:sodipodi="http://sodipodi.sourceforge.net/DTD/sodipodi-0.dtd"
   xmlns="http://www.w3.org/2000/svg"
   xmlns:svg="http://www.w3.org/2000/svg">
  <sodipodi:namedview
     id="namedview7"
     pagecolor="#ffffff"
     bordercolor="#000000"
     borderopacity="0.25"
     inkscape:showpageshadow="2"
     inkscape:pageopacity="0.0"
     inkscape:pagecheckerboard="0"
     inkscape:deskcolor="#d1d1d1"
     inkscape:document-units="mm"
     showgrid="false"
     inkscape:zoom="1"
     inkscape:cx="100.5"
     inkscape:cy="229.5"
     inkscape:window-width="1440"
     inkscape:window-height="828"
     inkscape:window-x="0"
     inkscape:window-y="0"
     inkscape:window-maximized="1"
     inkscape:current-layer="layer1" />
  <defs
     id="defs2" />
  <g
     inkscape:label="Layer 1"
     inkscape:groupmode="layer"
     id="layer1"
     transform="translate(-106.27158,69.286364)">
    <path
       style="baseline-shift:baseline;display:inline;overflow:visible;vector-effect:none;fill:#78350f;stroke-width:0.299842;enable-background:accumulate;stop-color:#000000"
       d="m 109.21101,-69.286364 -0.1752,0.0082 c -0.1317,0.0063 -0.27685,6.59e-4 -0.43127,0.02107 -0.0571,0.0076 -0.10966,0.05663 -0.12715,0.09248 -0.0175,0.03585 -0.0189,0.06089 -0.0199,0.08077 -0.001,0.01988 10e-5,0.03539 10e-4,0.04682 8e-4,0.0091 0.001,0.01253 0.001,0.0094 0.002,0.04917 0.004,0.109994 0.0105,0.168566 0.006,0.05219 0.0147,0.09259 0.0176,0.122912 0.004,0.04355 0.001,0.09052 0.004,0.134619 -0.55759,0.225644 -1.06673,0.540713 -1.47487,0.954036 -0.11332,0.114768 -0.20373,0.235459 -0.29649,0.342399 l -0.0129,0.01463 -0.009,0.01756 c -0.0529,0.111108 -0.12102,0.22908 -0.17286,0.364641 -0.10452,0.273358 -0.16419,0.58046 -0.20098,0.853949 -0.0682,0.507028 -0.0562,1.009766 -0.0416,1.504802 v 0.0059 l 6e-4,0.0059 c 0.0303,0.27695 0.0748,0.725602 0.12481,1.013736 0.0781,0.450128 0.11441,0.494643 0.22442,0.923015 0.034,0.132353 0.0592,0.274477 0.1002,0.421415 0.0329,0.117752 0.0748,0.225685 0.10899,0.328937 l 0.001,0.0029 10e-4,0.0023 c 0.0265,0.07086 0.0487,0.159472 0.0961,0.254604 0.003,0.0069 0.0133,0.04075 0.0363,0.08487 0.023,0.04412 0.0797,0.114998 0.16817,0.128765 0.13074,0.02036 0.25945,-0.0022 0.39025,-0.007 0.0697,0.0096 0.18098,0.03078 0.2256,0.03278 0.05,0.0022 0.0804,0.01 0.14531,-0.01931 0.0155,-0.007 0.027,-0.0406 0.0451,-0.06146 0.0118,-0.0086 0.0292,-0.01154 0.0375,-0.02107 0.0246,-0.02841 0.0351,-0.05483 0.0422,-0.07492 0.0142,-0.04017 0.0204,-0.0652 0.017,-0.05736 0.068,-0.158287 0.10357,-0.325692 0.14063,-0.465312 l 6e-4,-0.0029 6e-4,-0.0023 c 0.0246,-0.108221 0.0558,-0.221875 0.0779,-0.342985 0.0141,-0.07715 0.0343,-0.239894 0.058,-0.413806 0.46571,0.0083 0.92928,0.0259 1.39224,0.06087 0.16807,0.01269 0.33746,0.0288 0.50802,0.04331 0.16239,0.01706 0.22696,0.02742 0.3176,0.03687 0.09,0.08729 0.18111,0.175257 0.26778,0.259287 l 0.005,0.0053 0.005,0.0041 c 0.12632,0.101306 0.2518,0.218541 0.40314,0.323084 0.31428,0.217112 0.7491,0.43523 1.1602,0.508624 0.1792,0.032 0.43382,0.02379 0.67209,0.01171 0.23827,-0.01208 0.46141,-0.0316 0.50802,-0.03395 l 0.0217,-0.0012 0.0211,-0.0076 c 0.16907,-0.06191 0.28095,-0.08372 0.43244,-0.218316 0.0451,-0.04004 0.0977,-0.091 0.13244,-0.167981 0.0255,-0.05658 0.0571,-0.139632 0.0205,-0.240557 -0.041,-0.112934 -0.12633,-0.185633 -0.2045,-0.234705 -0.0782,-0.04907 -0.15497,-0.08137 -0.2086,-0.110621 l -0.0152,-0.0076 -0.0158,-0.0047 c -0.13016,-0.03555 -0.26413,-0.07737 -0.40607,-0.110621 -0.32401,-0.07589 -0.66132,-0.128409 -0.98382,-0.177346 -0.50022,-0.0759 -1.00065,-0.130434 -1.50064,-0.184368 -0.1268,-0.125037 -0.24912,-0.25432 -0.36564,-0.388638 -0.25916,-0.298735 -0.4736,-0.583161 -0.65861,-0.915406 -0.16707,-0.299998 -0.18454,-0.399804 -0.2842,-0.70704 -0.0446,-0.244868 -0.099,-0.477239 0.01,-0.628025 0.0216,-0.02983 0.0306,-0.037 0.0504,-0.04975 0.0179,-0.0115 0.0532,-0.02855 0.0973,-0.05268 0.46004,-0.183299 0.95495,-0.325178 1.42388,-0.548424 l 0.002,-0.0012 0.002,-6e-4 c 0.43524,-0.223211 0.93124,-0.465626 1.21235,-0.917162 0.0487,-0.07829 0.0731,-0.150816 0.099,-0.204854 l 0.0135,-0.02868 6e-4,-0.03161 c 6e-4,-0.04121 0.0164,-0.110352 0,-0.203098 v -6e-4 c -0.0666,-0.375534 -0.41361,-0.595944 -0.69201,-0.744499 -0.0984,-0.05253 -0.19629,-0.09167 -0.28419,-0.132862 l -0.007,-0.0035 -0.008,-0.0023 c -0.27699,-0.09464 -0.34948,-0.129591 -0.6551,-0.189637 -0.38461,-0.07556 -0.62888,-0.08074 -1.0477,-0.07667 -0.12811,0.0013 -0.25421,0.01326 -0.37735,0.03044 -0.0314,0.0044 -0.0576,0.01151 -0.0879,0.01697 -7e-4,-0.02139 0.005,-0.0389 0.003,-0.0597 -0.01,-0.08686 -0.0388,-0.145894 -0.0609,-0.199587 l -0.001,-0.0029 -10e-4,-0.0023 c 0.006,0.0126 0.005,-0.02325 -0.0404,-0.07433 -8e-4,-9.29e-4 -0.004,-0.0014 -0.005,-0.0023 z m 0.84554,0.72694 c -0.0372,9.2e-5 -0.0249,0.0057 0.0451,0.01873 0.11963,0.02233 0.23135,0.03256 0.32989,0.05385 0.24822,0.05362 0.30601,0.08645 0.54084,0.17676 0.0752,0.04297 0.14625,0.07846 0.19864,0.115304 0.1377,0.09687 0.28656,0.26478 0.33751,0.393905 0.0232,0.05884 0.0258,0.07736 0.0258,0.103013 -5e-5,0.02174 -0.007,0.06715 -0.0129,0.123498 -0.023,0.05608 -0.0395,0.105849 -0.0563,0.133448 -0.14434,0.237954 -0.47325,0.483769 -0.7594,0.640316 -0.0849,0.04646 -0.1808,0.0878 -0.28009,0.136374 -0.3373,0.156778 -0.70177,0.274154 -1.07113,0.389809 -0.071,0.02224 -0.14686,0.04301 -0.22559,0.06907 -0.0674,0.02229 -0.13005,0.04708 -0.18927,0.06848 l -0.008,0.0029 -0.008,0.0035 c -0.0371,0.01865 -0.0855,0.06938 -0.13243,0.09482 0.008,-0.04958 0.013,-0.09001 0.0223,-0.143398 0.1048,-0.600648 0.22711,-1.200243 0.35158,-1.800377 l -10e-4,0.0035 c 0.0389,-0.165129 0.0742,-0.316557 0.10371,-0.483456 0.014,-0.0039 0.018,-0.0075 0.0328,-0.0117 0.34526,-0.06001 0.41258,-0.08742 0.75531,-0.08838 z m -1.55513,0.364056 c 0,0.06109 0.005,0.11913 0.005,0.180858 0,8.09e-4 0,0.0015 0,0.0023 -0.052,0.786093 -0.11169,1.570608 -0.21857,2.34763 -0.0274,0.19903 -0.0607,0.399105 -0.0914,0.601687 -0.10089,0.637334 -0.24179,1.267074 -0.40958,1.889927 -0.0579,0.0012 -0.12377,7.79e-4 -0.1793,0.0018 l -0.0223,6e-4 -0.0211,0.007 c -0.10718,0.03567 -0.11602,0.04049 -0.13009,0.04214 -0.0141,0.0016 -0.0732,0.0015 -0.23673,0.01522 l -0.007,0.286796 0.0422,0.0059 0.0158,-0.0012 c 0.26329,-0.02193 0.36876,-0.0083 0.45529,-0.0053 -0.0667,0.222122 -0.13969,0.444278 -0.21095,0.670167 -0.009,0.02132 -0.24029,-0.272827 -0.34688,-0.546084 -0.053,-0.135856 -0.0928,-0.28162 -0.13594,-0.431949 -0.0782,-0.272891 -0.17482,-0.674884 -0.21974,-0.947012 -0.026,-0.157361 -0.0401,-0.321894 -0.0609,-0.491066 -0.0132,-0.176269 -0.0353,-0.343879 -0.0381,-0.503941 -0.003,-0.15836 0.007,-0.319516 0.0205,-0.482871 0.0264,-0.31839 0.0668,-0.566717 0.15704,-0.870923 0.0379,-0.128002 0.0789,-0.252498 0.13183,-0.368738 0.0471,-0.103494 0.11856,-0.210705 0.18634,-0.330694 0.0877,-0.113621 0.16096,-0.223951 0.24375,-0.313134 0.27816,-0.299598 0.66467,-0.566734 1.05649,-0.753864 0.006,-0.0029 0.009,-0.0024 0.0147,-0.0053 z m 0.15527,3.02365 c 0.0236,0.06042 0.0349,0.125543 0.065,0.201343 l 0.004,0.0088 0.005,0.0082 c 0.0581,0.104039 0.11237,0.222505 0.19044,0.340644 0.17343,0.262505 0.5144,0.673742 0.6967,0.89492 0.14685,0.178175 0.34214,0.398465 0.52795,0.610466 -0.41329,-0.03185 -0.82603,-0.07105 -1.24165,-0.07784 -0.17143,-0.0028 -0.34665,0.0036 -0.52678,0.0059 0.004,-0.03181 0.0148,-0.104795 0.017,-0.121156 0.0765,-0.57365 0.15191,-1.146614 0.23849,-1.717265 l 6e-4,-5.99e-4 c 0.009,-0.0581 0.0161,-0.09982 0.024,-0.153348 z m -0.56838,1.967772 c -0.001,0.008 -0.003,0.0189 -0.004,0.02751 -6e-4,1.1e-5 -0.001,-1.2e-5 -0.002,0 0.002,-0.0091 0.003,-0.0184 0.006,-0.02751 z m 3.37454,0.653192 c 0.387,0.05459 0.77432,0.10809 1.14144,0.207196 0.0986,0.0266 0.20029,0.06412 0.30938,0.0995 0.053,0.02432 0.11079,0.04604 0.15939,0.07082 0.0452,0.02304 0.0682,0.0459 0.0762,0.05443 -0.002,0.0045 -0.002,0.0054 -0.009,0.01346 -0.0245,0.0292 -0.0774,0.06831 -0.11133,0.08721 -0.0377,0.02101 -0.0951,0.03989 -0.16348,0.06907 l -0.0223,0.0094 c -0.3849,-0.05821 -0.7594,-0.212952 -1.08871,-0.41205 -0.097,-0.05865 -0.19461,-0.130084 -0.29181,-0.199001 z"
       id="path2"
       sodipodi:nodetypes="ccccccccccsccccccccccsccccscccccscccccccscccccsccccccccsccccccsscscccccccccccccccsccccccccccccccccscccccsccccccccccccscccccccccccccccccccccccscccccccssccccccccccccccccsccsccccc" />
  </g>
</svg>
