<?xml version="1.0" encoding="UTF-8" standalone="no"?>
<!-- Created with Inkscape (http://www.inkscape.org/) -->

<svg
   width="100.00004mm"
   height="100mm"
   viewBox="0 0 100.00004 100"
   version="1.1"
   id="svg5"
   inkscape:version="1.2 (dc2aedaf03, 2022-05-15)"
   sodipodi:docname="RobinArtemsteinLogo.svg"
   xmlns:inkscape="http://www.inkscape.org/namespaces/inkscape"
   xmlns:sodipodi="http://sodipodi.sourceforge.net/DTD/sodipodi-0.dtd"
   xmlns="http://www.w3.org/2000/svg"
   xmlns:svg="http://www.w3.org/2000/svg">
  <sodipodi:namedview
     id="namedview7"
     pagecolor="#ffffff"
     bordercolor="#000000"
     borderopacity="0.25"
     inkscape:showpageshadow="2"
     inkscape:pageopacity="0.0"
     inkscape:pagecheckerboard="0"
     inkscape:deskcolor="#d1d1d1"
     inkscape:document-units="mm"
     showgrid="false"
     inkscape:zoom="1.2931178"
     inkscape:cx="22.039755"
     inkscape:cy="177.86469"
     inkscape:window-width="1280"
     inkscape:window-height="727"
     inkscape:window-x="0"
     inkscape:window-y="0"
     inkscape:window-maximized="1"
     inkscape:current-layer="layer1" />
  <defs
     id="defs2" />
  <g
     inkscape:label="Layer 1"
     inkscape:groupmode="layer"
     id="layer1"
     transform="translate(-88.007531,77.313029)">
    <path
       style="fill:#78350f;stroke-width:0;stroke-dasharray:none;fill-opacity:1"
       id="path1473"
       d="m 122.27858,-76.775819 c 0.0346,-0.06877 0.093,-0.131598 0.10375,-0.2063 0.009,-0.06247 -0.0419,-0.121339 -0.0477,-0.184096 -0.005,-0.04904 0.0106,-0.09787 0.0177,-0.146814 -1.82755,0.08778 -3.67249,0.0235 -5.48265,0.263344 -0.41532,0.05503 -0.26016,0.905943 -0.25148,1.046109 0.0286,0.662047 0.0534,1.428313 0.12602,2.075552 0.062,0.551306 0.18164,1.097039 0.23333,1.64918 0.30002,3.205546 0.24281,6.438866 0.24521,9.650732 -0.68272,10.343779 -1.46373,20.699112 -2.87734,30.988097 -0.36261,2.639266 -0.79674,5.270404 -1.19511,7.905607 -1.53054,9.682333 -3.46407,19.3214695 -6.23979,28.7882423 -0.95805,3.2674875 -2.04829,6.5033057 -3.07116,9.7552787 -0.80543,1.902202 -1.48601,4.045766 -2.92223,5.703119 -0.42975,0.495919 -2.284292,1.104495 -1.59441,1.232995 13.12373,2.4444 5.32864,-0.514538 4.10057,-1.621084 -0.98187,-0.884699 -1.73185,-1.950835 -2.59778,-2.926254 C 98.50605,13.372301 97.461857,11.97544 95.778099,7.6540668 95.036737,5.7513556 94.503796,3.788736 93.944962,1.8375145 c -1.044558,-3.6471631 -2.310729,-8.9182962 -2.9196,-12.6108995 -0.360867,-2.188501 -0.546196,-4.396988 -0.81929,-6.59548 -0.167185,-2.235465 -0.462977,-4.466269 -0.501581,-6.70639 -0.03742,-2.171593 0.09468,-4.344988 0.273801,-6.511006 0.351318,-4.248285 0.908155,-7.678281 2.124325,-11.784813 0.507679,-1.714253 1.073197,-3.422292 1.820355,-5.066053 0.718989,-1.581794 1.710219,-3.055018 2.565328,-4.582528 1.129764,-1.451249 2.126248,-2.991794 3.389289,-4.35375 3.847181,-4.148459 9.075481,-7.747075 14.390281,-10.288272 4.5725,-2.186278 6.18402,-2.433868 11.04065,-3.81892 4.58242,-0.793161 5.66033,-1.185043 10.29304,-1.198018 0.33091,-8.29e-4 0.61978,0.213294 0.9436,0.273797 1.44889,0.2707 2.92897,0.407421 4.36752,0.718501 3.38844,0.732734 4.31157,1.221257 7.44113,2.422714 0.97204,0.566972 2.00497,1.059222 2.91614,1.700915 2.06826,1.456589 4.20072,3.76231 5.08499,6.00603 0.70996,1.801422 0.44049,2.293476 0.25879,4.135943 -0.32452,0.750523 -0.54457,1.543554 -0.97356,2.251568 -2.21816,3.661042 -6.72517,6.914356 -10.63743,9.057132 -1.21189,0.663755 -2.49364,1.221323 -3.74047,1.831982 -4.56346,2.126713 -9.41834,3.687178 -14.26799,5.207419 -0.97252,0.304863 -1.95893,0.575032 -2.92522,0.895102 -0.81612,0.270319 -1.61332,0.583593 -2.41997,0.87539 -1.28144,0.644432 -2.5186,1.052673 -3.31321,2.244654 -0.85494,1.282552 -0.75036,2.692009 -0.53123,4.102793 0.41891,2.69691 1.04734,3.796975 2.10199,6.451753 0.80567,1.444678 1.49901,2.94313 2.41698,4.334033 2.1346,3.23433 6.60802,8.659796 8.99295,11.5566103 2.87667,3.4941135 7.08589,8.56407573 10.26966,11.8883718 1.6643,1.7377568 3.46815,3.3663105 5.20224,5.0494641 1.72247,1.3830218 3.33526,2.8819468 5.16744,4.1490618 3.91444,2.707194 9.4805,5.465989 14.42768,6.350216 3.86657,0.691091 13.4273,-0.238123 15.0024,-0.317668 2.33049,-0.854344 3.30539,-0.944081 5.05265,-2.498171 0.50959,-0.453255 0.99706,-0.964186 1.26491,-1.558737 0.24267,-0.538707 0.41689,-1.177611 0.21656,-1.729863 -0.67664,-1.865307 -2.8901,-2.604192 -4.53585,-3.502751 C 181.63789,9.7402258 179.91187,9.1996758 178.14515,8.7853853 174.00497,7.8145332 169.64012,7.1358598 165.42742,6.4959142 158.68284,5.4713501 151.90941,4.7299665 145.11866,3.9978147 136.94318,3.159616 128.72704,2.5909802 120.49627,2.4562717 c -5.45054,-0.089212 -11.62075,0.092114 -16.88821,0.1839043 -2.74697,0.9153941 -1.04054,0.4892788 -5.233054,0.8405721 0,0 0.349649,0.046167 0.349649,0.046167 v 0 c 5.878075,-0.4902027 2.409175,-0.3350118 10.419085,-0.1165382 -3.5034,0.1320213 -1.6006,0.033743 3.55572,0.1213384 6.22126,0.1056673 12.42045,0.3490282 18.62167,0.8178433 2.23387,0.168884 4.46347,0.379751 6.69519,0.5696273 6.84698,0.7202987 6.69676,0.6517499 13.46522,1.5715379 6.01941,0.8179986 12.09526,1.6895587 17.93517,3.2678608 1.44109,0.3894754 2.8321,0.9122764 4.24814,1.3684124 1.1676,0.548123 3.43049,1.265434 4.15822,2.559661 0.86484,1.538035 -1.23303,3.138544 -2.42189,3.802312 -0.72625,0.405496 -1.54604,0.660931 -2.31906,0.991399 1.48724,0.191308 4.55861,-0.757069 4.46172,0.573922 -0.0967,1.329339 -3.01223,0.146187 -4.50273,-0.01051 -5.85012,-0.615233 -11.40512,-3.04126 -16.20968,-5.949339 -2.05969,-1.246682 -3.95113,-2.699341 -5.92671,-4.0490139 -1.88948,-1.6636328 -3.87124,-3.2485737 -5.66843,-4.9909 -1.88169,-1.8242546 -3.65715,-3.73652693 -5.35599,-5.6970335 -3.44027,-3.9701353 -6.33474,-7.8104203 -8.83306,-12.3018536 -2.27729,-4.094019 -2.57982,-5.611513 -3.91641,-9.720066 -0.55919,-3.097217 -1.63809,-6.890628 0.44587,-9.777306 0.79287,-1.098256 1.43858,-1.274075 2.67687,-1.965463 6.15875,-2.463422 12.62213,-4.314472 18.59074,-7.15918 5.6987,-2.925839 11.81116,-6.017116 15.10783,-11.318434 0.49295,-0.792691 0.79784,-1.666639 1.19676,-2.499956 0.0106,-0.769411 0.16331,-1.548024 0.0293,-2.308235 -0.67783,-3.844643 -4.59112,-6.54469 -8.08243,-8.409728 -1.17118,-0.625637 -2.41704,-1.133913 -3.62555,-1.700872 -3.66127,-1.252243 -4.39735,-1.638505 -8.32054,-2.410163 -4.90188,-0.964162 -7.85789,-1.020887 -13.31479,-0.967876 -1.571,0.01522 -3.14207,0.160786 -4.69409,0.377492 -1.68101,0.234716 -3.32381,0.649384 -4.98571,0.974077 -1.70512,0.546925 -3.44884,1.007007 -5.11535,1.640777 -7.57631,2.881245 -14.39763,7.15281 -19.835554,12.666126 -1.368599,1.38758 -2.5332,2.923767 -3.7998,4.385649 -0.734525,1.544009 -1.597305,3.044752 -2.203574,4.632016 -1.282115,3.356718 -2.050731,7.267429 -2.520428,10.762438 -0.865955,6.443564 -0.716972,12.920611 -0.526492,19.393092 0.399115,3.645353 0.984511,9.5240585 1.613559,13.1519832 1.008924,5.8188269 1.442715,6.2637116 2.897719,11.9361276 0.466813,1.8198967 0.801585,3.6661422 1.306767,5.4779542 0.39739,1.425224 0.932642,2.817357 1.398961,4.226038 0.393201,1.051185 0.675167,2.140476 1.1796,3.153564 0.3187,0.640074 0.495352,1.648953 1.271927,1.770014 2.946905,0.459387 6.032005,0.311031 8.973935,-0.172809 0.5924,-0.09743 0.59194,-0.935977 0.80636,-1.435697 0.78839,-1.837424 1.25263,-3.947394 1.75243,-5.832589 0.33352,-1.469145 0.73064,-2.92804 1.00053,-4.40744 0.35302,-1.935092 1.41585,-10.10354625 1.63064,-11.716071 1.00014,-7.5087526 1.99447,-15.018436 3.13023,-22.512289 0.85977,-5.749122 1.39263,-9.560231 2.38342,-15.245755 1.37653,-7.898792 2.98106,-15.765846 4.60938,-23.626085 0.60242,-2.560991 1.17245,-4.699327 1.55485,-7.259681 0.16649,-1.115368 0.36369,-2.962836 0.22528,-4.175438 -0.0977,-0.855814 -0.3497,-1.348624 -0.665,-2.114934 -0.0774,-0.168697 -0.10622,-0.362418 -0.23233,-0.506092 -0.10145,-0.115424 -0.2534,-0.228726 -0.41817,-0.234582 -1.7942,-0.06377 -3.59119,0.02091 -5.3868,0.02827 -0.0903,3.7e-4 0.18378,-0.0288 0.2708,-0.0074 0.24963,0.06157 0.40722,0.319017 0.69873,0.30227 0,0 4.1224,-0.225186 4.1224,-0.225186 z" />
  </g>
</svg>
